<svg width="1421" height="800" viewBox="0 0 1421 800" fill="none" xmlns="http://www.w3.org/2000/svg">
<path d="M1234.45 454.601C1299.55 515.335 1389.33 519.871 1441.03 511.351V799H399.034V590.195C409.061 590.195 426.332 586.093 443.251 590.195C480.909 599.324 525.392 668.837 563.16 677.307C655.186 697.948 751.56 549.595 751.56 549.595C751.56 549.595 819.377 462.616 865.325 409.842C910.251 358.241 952.769 329 1044.31 329C1118.23 329 1189.23 412.422 1234.45 454.601Z" fill="#FFFAF4"/>
<path d="M288.133 398.545C198.282 469.164 74.3918 474.438 3.03369 464.532V799H1441.03V556.208C1427.2 556.208 1403.36 551.439 1380.01 556.208C1328.04 566.824 1266.65 647.65 1214.53 657.5C1087.53 681.5 954.534 509 954.534 509C954.534 509 860.944 407.864 797.534 346.5C735.534 286.5 676.858 252.5 550.534 252.5C448.511 252.5 350.534 349.5 288.133 398.545Z" fill="#FDF6EE"/>
<path d="M393.034 1C421.452 32.5504 495.64 94.1487 565.041 88.1391C651.793 80.6271 711.034 56 785.41 79.1247C831.71 93.5199 827.291 138.219 869.171 170.771C911.051 203.323 1093.53 124.197 1093.53 124.197C1093.53 124.197 1222.16 66.6047 1234.62 124.197C1247.09 181.789 1195.74 250.398 1219.17 264.421C1237.92 275.638 1374.89 224.357 1441.03 197.313" stroke="#E17A0E" stroke-opacity="0.24"/>
<path d="M1.03369 632.669C29.9677 608.526 79.6894 573.244 138.958 557.243C206.534 539 323.697 525.964 372.206 600.201C396.166 636.869 370.161 678.5 399.034 710.5C427.724 742.299 475.975 721.863 512.534 739C544.534 754 553.034 780.5 568.034 799" stroke="#E4E4E4"/>
<path d="M93.3634 456.798C92.8245 454.553 94.9186 452.566 97.1329 453.222L103.776 455.19C105.99 455.846 106.663 458.653 104.988 460.243L99.9622 465.012C98.2869 466.601 95.5191 465.781 94.9802 463.535L93.3634 456.798Z" fill="#9AB1EC"/>
<path d="M1166.5 669.936C1165.96 667.69 1168.06 665.703 1170.27 666.359L1176.91 668.327C1179.13 668.984 1179.8 671.791 1178.13 673.38L1173.1 678.149C1171.42 679.738 1168.66 678.918 1168.12 676.673L1166.5 669.936Z" fill="#EC9AC1"/>
<path d="M883.501 226.936C882.962 224.69 885.056 222.703 887.27 223.359L893.913 225.327C896.127 225.984 896.801 228.791 895.125 230.38L890.099 235.149C888.424 236.738 885.656 235.918 885.117 233.673L883.501 226.936Z" fill="#A6EC9A"/>
<circle cx="586.534" cy="183.5" r="4.5" fill="#FFD6D6"/>
<circle cx="1310.53" cy="144.5" r="4.5" fill="#F9D6FF"/>
<rect x="752.685" y="161.522" width="45.7199" height="45.7199" rx="10" transform="rotate(-35.9958 752.685 161.522)" fill="#0CBE64"/>
</svg>
